# xmcd CD database file generated by OrangeCD 6.3
#
# Track frame offsets:
#	150
#	15310
#	28217
#	45243
#	64062
#	81056
#	97590
#	121333
#	134727
#	156302
#	179875
#	194619
#
# Disc length: 2766 seconds
#
# Revision: 1
# Processed by: cddbd v1.5.2PL0 Copyright (c) Steve Scherf et al.
# Submitted via: OrangeCD 6.3
#
DISCID=9e0acc0c
DTITLE=Band Of Oz - Over The Rainbow
DYEAR=2001
DGENRE=R&B
TTITLE0=Baby's Got My Number
TTITLE1=I'm Gonna Love You
TTITLE2=One Foot Dragging
TTITLE3=Red Hot Love
TTITLE4=I Found A Love
TTITLE5=I Love The Nightlife
TTITLE6=Lady Soul
TTITLE7=I Saw Her Standing There
TTITLE8=Ruby Baby
TTITLE9=Your Life To Live
TTITLE10=Hooked On A Feeling
TTITLE11=Over The Rainbow
EXTD=
EXTT0=
EXTT1=
EXTT2=
EXTT3=
EXTT4=
EXTT5=
EXTT6=
EXTT7=
EXTT8=
EXTT9=
EXTT10=
EXTT11=
PLAYORDER=
